<svg id="Layer_1" data-name="Layer 1" xmlns="http://www.w3.org/2000/svg" viewBox="0 0 441.79 376.41"><defs><style>.cls-1{font-size:83.04px;font-family:MyriadPro-Black, Myriad Pro;font-weight:800;}.cls-1,.cls-2,.cls-3{fill:#231f20;}.cls-2,.cls-4{stroke:#fff;stroke-miterlimit:10;stroke-width:6.07px;}.cls-4{fill:none;}</style></defs><text class="cls-1" transform="translate(5.5 355.57)">CULTCHAIN</text><path class="cls-2" d="M141.19,288.55c11.14,30.93,38,52.93,70.22,52.93H302.5c42.07,0,76.31-37.34,76.31-83.23S344.57,175,302.5,175H211.41c-32.26,0-59.89,22-71,52.89H82.44c12.8-64.82,65.76-113.56,129-113.56H302.5c72.75,0,132.75,64.55,132.75,143.9s-60,143.9-132.75,143.9H211.41c-63.21,0-115.35-48.78-128.16-113.6Z" transform="translate(-78.75 -111.32)"/><path class="cls-2" d="M455.29,114.35H517.5V175H455.29C413.21,175,379,212.36,379,258.25s34.23,83.23,76.31,83.23H517.5v60.67H455.29c-72.75,0-131.94-64.56-131.94-143.9S382.54,114.35,455.29,114.35Z" transform="translate(-78.75 -111.32)"/><path class="cls-3" d="M303.31,175l-91.08-2.83c-32.27,0-59.9,22-71,52.89H83.25c12.81-64.83,65.77-113.56,129-113.56h91.08c72.75,0,131.94,64.55,131.94,143.89l-53.19.12C382.06,209.64,341.66,175.31,303.31,175Z" transform="translate(-78.75 -111.32)"/><path class="cls-4" d="M379,256.89C379,211,345.39,175,303.31,175H212.23c-32.27,0-59.9,22-71,52.89H83.25c12.81-64.82,65.77-113.56,129-113.56h91.08c72.75,0,131.94,64.55,131.94,143.9a153.15,153.15,0,0,1-17.85,72.22" transform="translate(-78.75 -111.32)"/></svg>